%TF.GenerationSoftware,KiCad,Pcbnew,7.0.2-6a45011f42~172~ubuntu22.04.1*%
%TF.CreationDate,2023-05-29T20:36:27+02:00*%
%TF.ProjectId,politieflitser,706f6c69-7469-4656-966c-69747365722e,rev?*%
%TF.SameCoordinates,Original*%
%TF.FileFunction,Soldermask,Bot*%
%TF.FilePolarity,Negative*%
%FSLAX46Y46*%
G04 Gerber Fmt 4.6, Leading zero omitted, Abs format (unit mm)*
G04 Created by KiCad (PCBNEW 7.0.2-6a45011f42~172~ubuntu22.04.1) date 2023-05-29 20:36:27*
%MOMM*%
%LPD*%
G01*
G04 APERTURE LIST*
%ADD10R,2.600000X2.600000*%
%ADD11C,2.600000*%
%ADD12C,1.600000*%
%ADD13O,1.600000X1.600000*%
%ADD14R,1.600000X1.600000*%
%ADD15R,1.500000X1.500000*%
%ADD16C,1.500000*%
%ADD17R,1.800000X1.800000*%
%ADD18C,1.800000*%
G04 APERTURE END LIST*
D10*
%TO.C,OUT2*%
X108966000Y-39365000D03*
D11*
X108966000Y-44445000D03*
%TD*%
D12*
%TO.C,R16*%
X99314000Y-41148000D03*
D13*
X99314000Y-48768000D03*
%TD*%
D14*
%TO.C,C3*%
X62564000Y-41910000D03*
D12*
X67564000Y-41910000D03*
%TD*%
D14*
%TO.C,C6*%
X94956000Y-42418000D03*
D12*
X92456000Y-42418000D03*
%TD*%
%TO.C,R10*%
X75184000Y-27940000D03*
D13*
X75184000Y-35560000D03*
%TD*%
D15*
%TO.C,Q10*%
X90416000Y-52832000D03*
D16*
X92956000Y-55372000D03*
X90416000Y-57912000D03*
%TD*%
D12*
%TO.C,R13*%
X89662000Y-29210000D03*
D13*
X89662000Y-36830000D03*
%TD*%
D12*
%TO.C,R17*%
X39878000Y-28956000D03*
D13*
X39878000Y-36576000D03*
%TD*%
D12*
%TO.C,R14*%
X92964000Y-29210000D03*
D13*
X92964000Y-36830000D03*
%TD*%
D12*
%TO.C,R18*%
X99568000Y-29210000D03*
D13*
X99568000Y-36830000D03*
%TD*%
D15*
%TO.C,Q3*%
X58936000Y-32258000D03*
D16*
X56396000Y-29718000D03*
X58936000Y-27178000D03*
%TD*%
D14*
%TO.C,C1*%
X44704000Y-42164000D03*
D12*
X47204000Y-42164000D03*
%TD*%
D15*
%TO.C,Q4*%
X81542000Y-32258000D03*
D16*
X79002000Y-29718000D03*
X81542000Y-27178000D03*
%TD*%
D14*
%TO.C,C2*%
X53808000Y-42418000D03*
D12*
X51308000Y-42418000D03*
%TD*%
%TO.C,R7*%
X64262000Y-27940000D03*
D13*
X64262000Y-35560000D03*
%TD*%
D15*
%TO.C,Q5*%
X48760000Y-52578000D03*
D16*
X51300000Y-55118000D03*
X48760000Y-57658000D03*
%TD*%
D17*
%TO.C,LED1*%
X31242000Y-55118000D03*
D18*
X31242000Y-52578000D03*
%TD*%
D15*
%TO.C,Q6*%
X55880000Y-52832000D03*
D16*
X58420000Y-55372000D03*
X55880000Y-57912000D03*
%TD*%
D14*
%TO.C,C5*%
X85852000Y-42418000D03*
D12*
X88352000Y-42418000D03*
%TD*%
D15*
%TO.C,Q8*%
X76192000Y-52832000D03*
D16*
X78732000Y-55372000D03*
X76192000Y-57912000D03*
%TD*%
D15*
%TO.C,Q1*%
X41648000Y-52578000D03*
D16*
X44188000Y-55118000D03*
X41648000Y-57658000D03*
%TD*%
D15*
%TO.C,Q9*%
X83304000Y-52832000D03*
D16*
X85844000Y-55372000D03*
X83304000Y-57912000D03*
%TD*%
D14*
%TO.C,C4*%
X76882000Y-41910000D03*
D12*
X71882000Y-41910000D03*
%TD*%
%TO.C,R6*%
X58420000Y-35306000D03*
D13*
X58420000Y-42926000D03*
%TD*%
D12*
%TO.C,R15*%
X96266000Y-29210000D03*
D13*
X96266000Y-36830000D03*
%TD*%
D17*
%TO.C,LED2*%
X108966000Y-55372000D03*
D18*
X108966000Y-52832000D03*
%TD*%
D12*
%TO.C,R9*%
X71882000Y-27940000D03*
D13*
X71882000Y-35560000D03*
%TD*%
D12*
%TO.C,R2*%
X43180000Y-28956000D03*
D13*
X43180000Y-36576000D03*
%TD*%
D12*
%TO.C,R4*%
X49784000Y-28956000D03*
D13*
X49784000Y-36576000D03*
%TD*%
D12*
%TO.C,R11*%
X81026000Y-42926000D03*
D13*
X81026000Y-35306000D03*
%TD*%
D12*
%TO.C,R3*%
X46482000Y-28956000D03*
D13*
X46482000Y-36576000D03*
%TD*%
D12*
%TO.C,R8*%
X67564000Y-27940000D03*
D13*
X67564000Y-35560000D03*
%TD*%
D15*
%TO.C,Q2*%
X97274000Y-52832000D03*
D16*
X99814000Y-55372000D03*
X97274000Y-57912000D03*
%TD*%
D15*
%TO.C,Q7*%
X62992000Y-52832000D03*
D16*
X65532000Y-55372000D03*
X62992000Y-57912000D03*
%TD*%
D10*
%TO.C,9...12V*%
X68072000Y-60960000D03*
D11*
X73152000Y-60960000D03*
%TD*%
D12*
%TO.C,R5*%
X53086000Y-28956000D03*
D13*
X53086000Y-36576000D03*
%TD*%
D12*
%TO.C,R1*%
X40640000Y-48768000D03*
D13*
X40640000Y-41148000D03*
%TD*%
D12*
%TO.C,R12*%
X86360000Y-29210000D03*
D13*
X86360000Y-36830000D03*
%TD*%
D10*
%TO.C,OUT1*%
X30988000Y-42418000D03*
D11*
X30988000Y-37338000D03*
%TD*%
M02*
