%TF.GenerationSoftware,KiCad,Pcbnew,7.0.2-6a45011f42~172~ubuntu22.04.1*%
%TF.CreationDate,2023-05-29T20:36:31+02:00*%
%TF.ProjectId,politieflitser,706f6c69-7469-4656-966c-69747365722e,rev?*%
%TF.SameCoordinates,Original*%
%TF.FileFunction,Drillmap*%
%TF.FilePolarity,Positive*%
%FSLAX45Y45*%
G04 Gerber Fmt 4.5, Leading zero omitted, Abs format (unit mm)*
G04 Created by KiCad (PCBNEW 7.0.2-6a45011f42~172~ubuntu22.04.1) date 2023-05-29 20:36:31*
%MOMM*%
%LPD*%
G01*
G04 APERTURE LIST*
%ADD10C,0.200000*%
G04 APERTURE END LIST*
D10*
X11249000Y-2921000D02*
G75*
G03*
X11249000Y-2921000I-200000J0D01*
G01*
X2286000Y-2438400D02*
X11684000Y-2438400D01*
X11684000Y-6527800D01*
X2286000Y-6527800D01*
X2286000Y-2438400D01*
X3121000Y-2921000D02*
G75*
G03*
X3121000Y-2921000I-200000J0D01*
G01*
X2523619Y-6850324D02*
X2523619Y-6650324D01*
X2523619Y-6650324D02*
X2571238Y-6650324D01*
X2571238Y-6650324D02*
X2599810Y-6659848D01*
X2599810Y-6659848D02*
X2618857Y-6678895D01*
X2618857Y-6678895D02*
X2628381Y-6697943D01*
X2628381Y-6697943D02*
X2637905Y-6736038D01*
X2637905Y-6736038D02*
X2637905Y-6764609D01*
X2637905Y-6764609D02*
X2628381Y-6802705D01*
X2628381Y-6802705D02*
X2618857Y-6821752D01*
X2618857Y-6821752D02*
X2599810Y-6840800D01*
X2599810Y-6840800D02*
X2571238Y-6850324D01*
X2571238Y-6850324D02*
X2523619Y-6850324D01*
X2723619Y-6850324D02*
X2723619Y-6716990D01*
X2723619Y-6755086D02*
X2733143Y-6736038D01*
X2733143Y-6736038D02*
X2742667Y-6726514D01*
X2742667Y-6726514D02*
X2761714Y-6716990D01*
X2761714Y-6716990D02*
X2780762Y-6716990D01*
X2847428Y-6850324D02*
X2847428Y-6716990D01*
X2847428Y-6650324D02*
X2837905Y-6659848D01*
X2837905Y-6659848D02*
X2847428Y-6669371D01*
X2847428Y-6669371D02*
X2856952Y-6659848D01*
X2856952Y-6659848D02*
X2847428Y-6650324D01*
X2847428Y-6650324D02*
X2847428Y-6669371D01*
X2971238Y-6850324D02*
X2952190Y-6840800D01*
X2952190Y-6840800D02*
X2942667Y-6821752D01*
X2942667Y-6821752D02*
X2942667Y-6650324D01*
X3076000Y-6850324D02*
X3056952Y-6840800D01*
X3056952Y-6840800D02*
X3047428Y-6821752D01*
X3047428Y-6821752D02*
X3047428Y-6650324D01*
X3304571Y-6850324D02*
X3304571Y-6650324D01*
X3304571Y-6650324D02*
X3371238Y-6793181D01*
X3371238Y-6793181D02*
X3437905Y-6650324D01*
X3437905Y-6650324D02*
X3437905Y-6850324D01*
X3618857Y-6850324D02*
X3618857Y-6745562D01*
X3618857Y-6745562D02*
X3609333Y-6726514D01*
X3609333Y-6726514D02*
X3590286Y-6716990D01*
X3590286Y-6716990D02*
X3552190Y-6716990D01*
X3552190Y-6716990D02*
X3533143Y-6726514D01*
X3618857Y-6840800D02*
X3599809Y-6850324D01*
X3599809Y-6850324D02*
X3552190Y-6850324D01*
X3552190Y-6850324D02*
X3533143Y-6840800D01*
X3533143Y-6840800D02*
X3523619Y-6821752D01*
X3523619Y-6821752D02*
X3523619Y-6802705D01*
X3523619Y-6802705D02*
X3533143Y-6783657D01*
X3533143Y-6783657D02*
X3552190Y-6774133D01*
X3552190Y-6774133D02*
X3599809Y-6774133D01*
X3599809Y-6774133D02*
X3618857Y-6764609D01*
X3714095Y-6716990D02*
X3714095Y-6916990D01*
X3714095Y-6726514D02*
X3733143Y-6716990D01*
X3733143Y-6716990D02*
X3771238Y-6716990D01*
X3771238Y-6716990D02*
X3790286Y-6726514D01*
X3790286Y-6726514D02*
X3799809Y-6736038D01*
X3799809Y-6736038D02*
X3809333Y-6755086D01*
X3809333Y-6755086D02*
X3809333Y-6812228D01*
X3809333Y-6812228D02*
X3799809Y-6831276D01*
X3799809Y-6831276D02*
X3790286Y-6840800D01*
X3790286Y-6840800D02*
X3771238Y-6850324D01*
X3771238Y-6850324D02*
X3733143Y-6850324D01*
X3733143Y-6850324D02*
X3714095Y-6840800D01*
X3895048Y-6831276D02*
X3904571Y-6840800D01*
X3904571Y-6840800D02*
X3895048Y-6850324D01*
X3895048Y-6850324D02*
X3885524Y-6840800D01*
X3885524Y-6840800D02*
X3895048Y-6831276D01*
X3895048Y-6831276D02*
X3895048Y-6850324D01*
X3895048Y-6726514D02*
X3904571Y-6736038D01*
X3904571Y-6736038D02*
X3895048Y-6745562D01*
X3895048Y-6745562D02*
X3885524Y-6736038D01*
X3885524Y-6736038D02*
X3895048Y-6726514D01*
X3895048Y-6726514D02*
X3895048Y-6745562D01*
M02*
