%TF.GenerationSoftware,KiCad,Pcbnew,7.0.2-6a45011f42~172~ubuntu22.04.1*%
%TF.CreationDate,2023-05-29T20:36:31+02:00*%
%TF.ProjectId,politieflitser,706f6c69-7469-4656-966c-69747365722e,rev?*%
%TF.SameCoordinates,Original*%
%TF.FileFunction,Drillmap*%
%TF.FilePolarity,Positive*%
%FSLAX45Y45*%
G04 Gerber Fmt 4.5, Leading zero omitted, Abs format (unit mm)*
G04 Created by KiCad (PCBNEW 7.0.2-6a45011f42~172~ubuntu22.04.1) date 2023-05-29 20:36:31*
%MOMM*%
%LPD*%
G01*
G04 APERTURE LIST*
%ADD10C,0.200000*%
%ADD11C,0.080000*%
%ADD12C,0.090000*%
%ADD13C,0.140000*%
G04 APERTURE END LIST*
D10*
X11249000Y-2921000D02*
G75*
G03*
X11249000Y-2921000I-200000J0D01*
G01*
X2286000Y-2438400D02*
X11684000Y-2438400D01*
X11684000Y-6527800D01*
X2286000Y-6527800D01*
X2286000Y-2438400D01*
X3121000Y-2921000D02*
G75*
G03*
X3121000Y-2921000I-200000J0D01*
G01*
D11*
X3947800Y-2855600D02*
X4027800Y-2935600D01*
X4027800Y-2855600D02*
X3947800Y-2935600D01*
X3947800Y-3617600D02*
X4027800Y-3697600D01*
X4027800Y-3617600D02*
X3947800Y-3697600D01*
X4024000Y-4074800D02*
X4104000Y-4154800D01*
X4104000Y-4074800D02*
X4024000Y-4154800D01*
X4024000Y-4836800D02*
X4104000Y-4916800D01*
X4104000Y-4836800D02*
X4024000Y-4916800D01*
X4124800Y-5217800D02*
X4204800Y-5297800D01*
X4204800Y-5217800D02*
X4124800Y-5297800D01*
X4124800Y-5725800D02*
X4204800Y-5805800D01*
X4204800Y-5725800D02*
X4124800Y-5805800D01*
X4278000Y-2855600D02*
X4358000Y-2935600D01*
X4358000Y-2855600D02*
X4278000Y-2935600D01*
X4278000Y-3617600D02*
X4358000Y-3697600D01*
X4358000Y-3617600D02*
X4278000Y-3697600D01*
X4378800Y-5471800D02*
X4458800Y-5551800D01*
X4458800Y-5471800D02*
X4378800Y-5551800D01*
X4430400Y-4176400D02*
X4510400Y-4256400D01*
X4510400Y-4176400D02*
X4430400Y-4256400D01*
X4608200Y-2855600D02*
X4688200Y-2935600D01*
X4688200Y-2855600D02*
X4608200Y-2935600D01*
X4608200Y-3617600D02*
X4688200Y-3697600D01*
X4688200Y-3617600D02*
X4608200Y-3697600D01*
X4680400Y-4176400D02*
X4760400Y-4256400D01*
X4760400Y-4176400D02*
X4680400Y-4256400D01*
X4836000Y-5217800D02*
X4916000Y-5297800D01*
X4916000Y-5217800D02*
X4836000Y-5297800D01*
X4836000Y-5725800D02*
X4916000Y-5805800D01*
X4916000Y-5725800D02*
X4836000Y-5805800D01*
X4938400Y-2855600D02*
X5018400Y-2935600D01*
X5018400Y-2855600D02*
X4938400Y-2935600D01*
X4938400Y-3617600D02*
X5018400Y-3697600D01*
X5018400Y-3617600D02*
X4938400Y-3697600D01*
X5090000Y-5471800D02*
X5170000Y-5551800D01*
X5170000Y-5471800D02*
X5090000Y-5551800D01*
X5090800Y-4201800D02*
X5170800Y-4281800D01*
X5170800Y-4201800D02*
X5090800Y-4281800D01*
X5268600Y-2855600D02*
X5348600Y-2935600D01*
X5348600Y-2855600D02*
X5268600Y-2935600D01*
X5268600Y-3617600D02*
X5348600Y-3697600D01*
X5348600Y-3617600D02*
X5268600Y-3697600D01*
X5340800Y-4201800D02*
X5420800Y-4281800D01*
X5420800Y-4201800D02*
X5340800Y-4281800D01*
X5548000Y-5243200D02*
X5628000Y-5323200D01*
X5628000Y-5243200D02*
X5548000Y-5323200D01*
X5548000Y-5751200D02*
X5628000Y-5831200D01*
X5628000Y-5751200D02*
X5548000Y-5831200D01*
X5599600Y-2931800D02*
X5679600Y-3011800D01*
X5679600Y-2931800D02*
X5599600Y-3011800D01*
X5802000Y-3490600D02*
X5882000Y-3570600D01*
X5882000Y-3490600D02*
X5802000Y-3570600D01*
X5802000Y-4252600D02*
X5882000Y-4332600D01*
X5882000Y-4252600D02*
X5802000Y-4332600D01*
X5802000Y-5497200D02*
X5882000Y-5577200D01*
X5882000Y-5497200D02*
X5802000Y-5577200D01*
X5853600Y-2677800D02*
X5933600Y-2757800D01*
X5933600Y-2677800D02*
X5853600Y-2757800D01*
X5853600Y-3185800D02*
X5933600Y-3265800D01*
X5933600Y-3185800D02*
X5853600Y-3265800D01*
X6216400Y-4151000D02*
X6296400Y-4231000D01*
X6296400Y-4151000D02*
X6216400Y-4231000D01*
X6259200Y-5243200D02*
X6339200Y-5323200D01*
X6339200Y-5243200D02*
X6259200Y-5323200D01*
X6259200Y-5751200D02*
X6339200Y-5831200D01*
X6339200Y-5751200D02*
X6259200Y-5831200D01*
X6386200Y-2754000D02*
X6466200Y-2834000D01*
X6466200Y-2754000D02*
X6386200Y-2834000D01*
X6386200Y-3516000D02*
X6466200Y-3596000D01*
X6466200Y-3516000D02*
X6386200Y-3596000D01*
X6513200Y-5497200D02*
X6593200Y-5577200D01*
X6593200Y-5497200D02*
X6513200Y-5577200D01*
X6716400Y-2754000D02*
X6796400Y-2834000D01*
X6796400Y-2754000D02*
X6716400Y-2834000D01*
X6716400Y-3516000D02*
X6796400Y-3596000D01*
X6796400Y-3516000D02*
X6716400Y-3596000D01*
X6716400Y-4151000D02*
X6796400Y-4231000D01*
X6796400Y-4151000D02*
X6716400Y-4231000D01*
X7148200Y-2754000D02*
X7228200Y-2834000D01*
X7228200Y-2754000D02*
X7148200Y-2834000D01*
X7148200Y-3516000D02*
X7228200Y-3596000D01*
X7228200Y-3516000D02*
X7148200Y-3596000D01*
X7148200Y-4151000D02*
X7228200Y-4231000D01*
X7228200Y-4151000D02*
X7148200Y-4231000D01*
X7478400Y-2754000D02*
X7558400Y-2834000D01*
X7558400Y-2754000D02*
X7478400Y-2834000D01*
X7478400Y-3516000D02*
X7558400Y-3596000D01*
X7558400Y-3516000D02*
X7478400Y-3596000D01*
X7579200Y-5243200D02*
X7659200Y-5323200D01*
X7659200Y-5243200D02*
X7579200Y-5323200D01*
X7579200Y-5751200D02*
X7659200Y-5831200D01*
X7659200Y-5751200D02*
X7579200Y-5831200D01*
X7648200Y-4151000D02*
X7728200Y-4231000D01*
X7728200Y-4151000D02*
X7648200Y-4231000D01*
X7833200Y-5497200D02*
X7913200Y-5577200D01*
X7913200Y-5497200D02*
X7833200Y-5577200D01*
X7860200Y-2931800D02*
X7940200Y-3011800D01*
X7940200Y-2931800D02*
X7860200Y-3011800D01*
X8062600Y-3490600D02*
X8142600Y-3570600D01*
X8142600Y-3490600D02*
X8062600Y-3570600D01*
X8062600Y-4252600D02*
X8142600Y-4332600D01*
X8142600Y-4252600D02*
X8062600Y-4332600D01*
X8114200Y-2677800D02*
X8194200Y-2757800D01*
X8194200Y-2677800D02*
X8114200Y-2757800D01*
X8114200Y-3185800D02*
X8194200Y-3265800D01*
X8194200Y-3185800D02*
X8114200Y-3265800D01*
X8290400Y-5243200D02*
X8370400Y-5323200D01*
X8370400Y-5243200D02*
X8290400Y-5323200D01*
X8290400Y-5751200D02*
X8370400Y-5831200D01*
X8370400Y-5751200D02*
X8290400Y-5831200D01*
X8544400Y-5497200D02*
X8624400Y-5577200D01*
X8624400Y-5497200D02*
X8544400Y-5577200D01*
X8545200Y-4201800D02*
X8625200Y-4281800D01*
X8625200Y-4201800D02*
X8545200Y-4281800D01*
X8596000Y-2881000D02*
X8676000Y-2961000D01*
X8676000Y-2881000D02*
X8596000Y-2961000D01*
X8596000Y-3643000D02*
X8676000Y-3723000D01*
X8676000Y-3643000D02*
X8596000Y-3723000D01*
X8795200Y-4201800D02*
X8875200Y-4281800D01*
X8875200Y-4201800D02*
X8795200Y-4281800D01*
X8926200Y-2881000D02*
X9006200Y-2961000D01*
X9006200Y-2881000D02*
X8926200Y-2961000D01*
X8926200Y-3643000D02*
X9006200Y-3723000D01*
X9006200Y-3643000D02*
X8926200Y-3723000D01*
X9001600Y-5243200D02*
X9081600Y-5323200D01*
X9081600Y-5243200D02*
X9001600Y-5323200D01*
X9001600Y-5751200D02*
X9081600Y-5831200D01*
X9081600Y-5751200D02*
X9001600Y-5831200D01*
X9205600Y-4201800D02*
X9285600Y-4281800D01*
X9285600Y-4201800D02*
X9205600Y-4281800D01*
X9255600Y-5497200D02*
X9335600Y-5577200D01*
X9335600Y-5497200D02*
X9255600Y-5577200D01*
X9256400Y-2881000D02*
X9336400Y-2961000D01*
X9336400Y-2881000D02*
X9256400Y-2961000D01*
X9256400Y-3643000D02*
X9336400Y-3723000D01*
X9336400Y-3643000D02*
X9256400Y-3723000D01*
X9455600Y-4201800D02*
X9535600Y-4281800D01*
X9535600Y-4201800D02*
X9455600Y-4281800D01*
X9586600Y-2881000D02*
X9666600Y-2961000D01*
X9666600Y-2881000D02*
X9586600Y-2961000D01*
X9586600Y-3643000D02*
X9666600Y-3723000D01*
X9666600Y-3643000D02*
X9586600Y-3723000D01*
X9687400Y-5243200D02*
X9767400Y-5323200D01*
X9767400Y-5243200D02*
X9687400Y-5323200D01*
X9687400Y-5751200D02*
X9767400Y-5831200D01*
X9767400Y-5751200D02*
X9687400Y-5831200D01*
X9891400Y-4074800D02*
X9971400Y-4154800D01*
X9971400Y-4074800D02*
X9891400Y-4154800D01*
X9891400Y-4836800D02*
X9971400Y-4916800D01*
X9971400Y-4836800D02*
X9891400Y-4916800D01*
X9916800Y-2881000D02*
X9996800Y-2961000D01*
X9996800Y-2881000D02*
X9916800Y-2961000D01*
X9916800Y-3643000D02*
X9996800Y-3723000D01*
X9996800Y-3643000D02*
X9916800Y-3723000D01*
X9941400Y-5497200D02*
X10021400Y-5577200D01*
X10021400Y-5497200D02*
X9941400Y-5577200D01*
D12*
X3169200Y-5257800D02*
G75*
G03*
X3169200Y-5257800I-45000J0D01*
G01*
X3169200Y-5511800D02*
G75*
G03*
X3169200Y-5511800I-45000J0D01*
G01*
X10941600Y-5283200D02*
G75*
G03*
X10941600Y-5283200I-45000J0D01*
G01*
X10941600Y-5537200D02*
G75*
G03*
X10941600Y-5537200I-45000J0D01*
G01*
D13*
X3098800Y-3663800D02*
X3098800Y-3803800D01*
X3028800Y-3733800D02*
X3168800Y-3733800D01*
X3098800Y-4171800D02*
X3098800Y-4311800D01*
X3028800Y-4241800D02*
X3168800Y-4241800D01*
X6807200Y-6026000D02*
X6807200Y-6166000D01*
X6737200Y-6096000D02*
X6877200Y-6096000D01*
X7315200Y-6026000D02*
X7315200Y-6166000D01*
X7245200Y-6096000D02*
X7385200Y-6096000D01*
X10896600Y-3866500D02*
X10896600Y-4006500D01*
X10826600Y-3936500D02*
X10966600Y-3936500D01*
X10896600Y-4374500D02*
X10896600Y-4514500D01*
X10826600Y-4444500D02*
X10966600Y-4444500D01*
D10*
X2523619Y-6850324D02*
X2523619Y-6650324D01*
X2523619Y-6650324D02*
X2571238Y-6650324D01*
X2571238Y-6650324D02*
X2599810Y-6659848D01*
X2599810Y-6659848D02*
X2618857Y-6678895D01*
X2618857Y-6678895D02*
X2628381Y-6697943D01*
X2628381Y-6697943D02*
X2637905Y-6736038D01*
X2637905Y-6736038D02*
X2637905Y-6764609D01*
X2637905Y-6764609D02*
X2628381Y-6802705D01*
X2628381Y-6802705D02*
X2618857Y-6821752D01*
X2618857Y-6821752D02*
X2599810Y-6840800D01*
X2599810Y-6840800D02*
X2571238Y-6850324D01*
X2571238Y-6850324D02*
X2523619Y-6850324D01*
X2723619Y-6850324D02*
X2723619Y-6716990D01*
X2723619Y-6755086D02*
X2733143Y-6736038D01*
X2733143Y-6736038D02*
X2742667Y-6726514D01*
X2742667Y-6726514D02*
X2761714Y-6716990D01*
X2761714Y-6716990D02*
X2780762Y-6716990D01*
X2847428Y-6850324D02*
X2847428Y-6716990D01*
X2847428Y-6650324D02*
X2837905Y-6659848D01*
X2837905Y-6659848D02*
X2847428Y-6669371D01*
X2847428Y-6669371D02*
X2856952Y-6659848D01*
X2856952Y-6659848D02*
X2847428Y-6650324D01*
X2847428Y-6650324D02*
X2847428Y-6669371D01*
X2971238Y-6850324D02*
X2952190Y-6840800D01*
X2952190Y-6840800D02*
X2942667Y-6821752D01*
X2942667Y-6821752D02*
X2942667Y-6650324D01*
X3076000Y-6850324D02*
X3056952Y-6840800D01*
X3056952Y-6840800D02*
X3047428Y-6821752D01*
X3047428Y-6821752D02*
X3047428Y-6650324D01*
X3304571Y-6850324D02*
X3304571Y-6650324D01*
X3304571Y-6650324D02*
X3371238Y-6793181D01*
X3371238Y-6793181D02*
X3437905Y-6650324D01*
X3437905Y-6650324D02*
X3437905Y-6850324D01*
X3618857Y-6850324D02*
X3618857Y-6745562D01*
X3618857Y-6745562D02*
X3609333Y-6726514D01*
X3609333Y-6726514D02*
X3590286Y-6716990D01*
X3590286Y-6716990D02*
X3552190Y-6716990D01*
X3552190Y-6716990D02*
X3533143Y-6726514D01*
X3618857Y-6840800D02*
X3599809Y-6850324D01*
X3599809Y-6850324D02*
X3552190Y-6850324D01*
X3552190Y-6850324D02*
X3533143Y-6840800D01*
X3533143Y-6840800D02*
X3523619Y-6821752D01*
X3523619Y-6821752D02*
X3523619Y-6802705D01*
X3523619Y-6802705D02*
X3533143Y-6783657D01*
X3533143Y-6783657D02*
X3552190Y-6774133D01*
X3552190Y-6774133D02*
X3599809Y-6774133D01*
X3599809Y-6774133D02*
X3618857Y-6764609D01*
X3714095Y-6716990D02*
X3714095Y-6916990D01*
X3714095Y-6726514D02*
X3733143Y-6716990D01*
X3733143Y-6716990D02*
X3771238Y-6716990D01*
X3771238Y-6716990D02*
X3790286Y-6726514D01*
X3790286Y-6726514D02*
X3799809Y-6736038D01*
X3799809Y-6736038D02*
X3809333Y-6755086D01*
X3809333Y-6755086D02*
X3809333Y-6812228D01*
X3809333Y-6812228D02*
X3799809Y-6831276D01*
X3799809Y-6831276D02*
X3790286Y-6840800D01*
X3790286Y-6840800D02*
X3771238Y-6850324D01*
X3771238Y-6850324D02*
X3733143Y-6850324D01*
X3733143Y-6850324D02*
X3714095Y-6840800D01*
X3895048Y-6831276D02*
X3904571Y-6840800D01*
X3904571Y-6840800D02*
X3895048Y-6850324D01*
X3895048Y-6850324D02*
X3885524Y-6840800D01*
X3885524Y-6840800D02*
X3895048Y-6831276D01*
X3895048Y-6831276D02*
X3895048Y-6850324D01*
X3895048Y-6726514D02*
X3904571Y-6736038D01*
X3904571Y-6736038D02*
X3895048Y-6745562D01*
X3895048Y-6745562D02*
X3885524Y-6736038D01*
X3885524Y-6736038D02*
X3895048Y-6726514D01*
X3895048Y-6726514D02*
X3895048Y-6745562D01*
D11*
X2196000Y-7137800D02*
X2276000Y-7217800D01*
X2276000Y-7137800D02*
X2196000Y-7217800D01*
D10*
X2561714Y-7070324D02*
X2580762Y-7070324D01*
X2580762Y-7070324D02*
X2599810Y-7079848D01*
X2599810Y-7079848D02*
X2609333Y-7089371D01*
X2609333Y-7089371D02*
X2618857Y-7108419D01*
X2618857Y-7108419D02*
X2628381Y-7146514D01*
X2628381Y-7146514D02*
X2628381Y-7194133D01*
X2628381Y-7194133D02*
X2618857Y-7232228D01*
X2618857Y-7232228D02*
X2609333Y-7251276D01*
X2609333Y-7251276D02*
X2599810Y-7260800D01*
X2599810Y-7260800D02*
X2580762Y-7270324D01*
X2580762Y-7270324D02*
X2561714Y-7270324D01*
X2561714Y-7270324D02*
X2542667Y-7260800D01*
X2542667Y-7260800D02*
X2533143Y-7251276D01*
X2533143Y-7251276D02*
X2523619Y-7232228D01*
X2523619Y-7232228D02*
X2514095Y-7194133D01*
X2514095Y-7194133D02*
X2514095Y-7146514D01*
X2514095Y-7146514D02*
X2523619Y-7108419D01*
X2523619Y-7108419D02*
X2533143Y-7089371D01*
X2533143Y-7089371D02*
X2542667Y-7079848D01*
X2542667Y-7079848D02*
X2561714Y-7070324D01*
X2714095Y-7251276D02*
X2723619Y-7260800D01*
X2723619Y-7260800D02*
X2714095Y-7270324D01*
X2714095Y-7270324D02*
X2704571Y-7260800D01*
X2704571Y-7260800D02*
X2714095Y-7251276D01*
X2714095Y-7251276D02*
X2714095Y-7270324D01*
X2837905Y-7156038D02*
X2818857Y-7146514D01*
X2818857Y-7146514D02*
X2809333Y-7136990D01*
X2809333Y-7136990D02*
X2799809Y-7117943D01*
X2799809Y-7117943D02*
X2799809Y-7108419D01*
X2799809Y-7108419D02*
X2809333Y-7089371D01*
X2809333Y-7089371D02*
X2818857Y-7079848D01*
X2818857Y-7079848D02*
X2837905Y-7070324D01*
X2837905Y-7070324D02*
X2876000Y-7070324D01*
X2876000Y-7070324D02*
X2895048Y-7079848D01*
X2895048Y-7079848D02*
X2904571Y-7089371D01*
X2904571Y-7089371D02*
X2914095Y-7108419D01*
X2914095Y-7108419D02*
X2914095Y-7117943D01*
X2914095Y-7117943D02*
X2904571Y-7136990D01*
X2904571Y-7136990D02*
X2895048Y-7146514D01*
X2895048Y-7146514D02*
X2876000Y-7156038D01*
X2876000Y-7156038D02*
X2837905Y-7156038D01*
X2837905Y-7156038D02*
X2818857Y-7165562D01*
X2818857Y-7165562D02*
X2809333Y-7175086D01*
X2809333Y-7175086D02*
X2799809Y-7194133D01*
X2799809Y-7194133D02*
X2799809Y-7232228D01*
X2799809Y-7232228D02*
X2809333Y-7251276D01*
X2809333Y-7251276D02*
X2818857Y-7260800D01*
X2818857Y-7260800D02*
X2837905Y-7270324D01*
X2837905Y-7270324D02*
X2876000Y-7270324D01*
X2876000Y-7270324D02*
X2895048Y-7260800D01*
X2895048Y-7260800D02*
X2904571Y-7251276D01*
X2904571Y-7251276D02*
X2914095Y-7232228D01*
X2914095Y-7232228D02*
X2914095Y-7194133D01*
X2914095Y-7194133D02*
X2904571Y-7175086D01*
X2904571Y-7175086D02*
X2895048Y-7165562D01*
X2895048Y-7165562D02*
X2876000Y-7156038D01*
X3037905Y-7070324D02*
X3056952Y-7070324D01*
X3056952Y-7070324D02*
X3076000Y-7079848D01*
X3076000Y-7079848D02*
X3085524Y-7089371D01*
X3085524Y-7089371D02*
X3095048Y-7108419D01*
X3095048Y-7108419D02*
X3104571Y-7146514D01*
X3104571Y-7146514D02*
X3104571Y-7194133D01*
X3104571Y-7194133D02*
X3095048Y-7232228D01*
X3095048Y-7232228D02*
X3085524Y-7251276D01*
X3085524Y-7251276D02*
X3076000Y-7260800D01*
X3076000Y-7260800D02*
X3056952Y-7270324D01*
X3056952Y-7270324D02*
X3037905Y-7270324D01*
X3037905Y-7270324D02*
X3018857Y-7260800D01*
X3018857Y-7260800D02*
X3009333Y-7251276D01*
X3009333Y-7251276D02*
X2999809Y-7232228D01*
X2999809Y-7232228D02*
X2990286Y-7194133D01*
X2990286Y-7194133D02*
X2990286Y-7146514D01*
X2990286Y-7146514D02*
X2999809Y-7108419D01*
X2999809Y-7108419D02*
X3009333Y-7089371D01*
X3009333Y-7089371D02*
X3018857Y-7079848D01*
X3018857Y-7079848D02*
X3037905Y-7070324D01*
X3228381Y-7070324D02*
X3247429Y-7070324D01*
X3247429Y-7070324D02*
X3266476Y-7079848D01*
X3266476Y-7079848D02*
X3276000Y-7089371D01*
X3276000Y-7089371D02*
X3285524Y-7108419D01*
X3285524Y-7108419D02*
X3295048Y-7146514D01*
X3295048Y-7146514D02*
X3295048Y-7194133D01*
X3295048Y-7194133D02*
X3285524Y-7232228D01*
X3285524Y-7232228D02*
X3276000Y-7251276D01*
X3276000Y-7251276D02*
X3266476Y-7260800D01*
X3266476Y-7260800D02*
X3247429Y-7270324D01*
X3247429Y-7270324D02*
X3228381Y-7270324D01*
X3228381Y-7270324D02*
X3209333Y-7260800D01*
X3209333Y-7260800D02*
X3199809Y-7251276D01*
X3199809Y-7251276D02*
X3190286Y-7232228D01*
X3190286Y-7232228D02*
X3180762Y-7194133D01*
X3180762Y-7194133D02*
X3180762Y-7146514D01*
X3180762Y-7146514D02*
X3190286Y-7108419D01*
X3190286Y-7108419D02*
X3199809Y-7089371D01*
X3199809Y-7089371D02*
X3209333Y-7079848D01*
X3209333Y-7079848D02*
X3228381Y-7070324D01*
X3380762Y-7270324D02*
X3380762Y-7136990D01*
X3380762Y-7156038D02*
X3390286Y-7146514D01*
X3390286Y-7146514D02*
X3409333Y-7136990D01*
X3409333Y-7136990D02*
X3437905Y-7136990D01*
X3437905Y-7136990D02*
X3456952Y-7146514D01*
X3456952Y-7146514D02*
X3466476Y-7165562D01*
X3466476Y-7165562D02*
X3466476Y-7270324D01*
X3466476Y-7165562D02*
X3476000Y-7146514D01*
X3476000Y-7146514D02*
X3495048Y-7136990D01*
X3495048Y-7136990D02*
X3523619Y-7136990D01*
X3523619Y-7136990D02*
X3542667Y-7146514D01*
X3542667Y-7146514D02*
X3552190Y-7165562D01*
X3552190Y-7165562D02*
X3552190Y-7270324D01*
X3647429Y-7270324D02*
X3647429Y-7136990D01*
X3647429Y-7156038D02*
X3656952Y-7146514D01*
X3656952Y-7146514D02*
X3676000Y-7136990D01*
X3676000Y-7136990D02*
X3704571Y-7136990D01*
X3704571Y-7136990D02*
X3723619Y-7146514D01*
X3723619Y-7146514D02*
X3733143Y-7165562D01*
X3733143Y-7165562D02*
X3733143Y-7270324D01*
X3733143Y-7165562D02*
X3742667Y-7146514D01*
X3742667Y-7146514D02*
X3761714Y-7136990D01*
X3761714Y-7136990D02*
X3790286Y-7136990D01*
X3790286Y-7136990D02*
X3809333Y-7146514D01*
X3809333Y-7146514D02*
X3818857Y-7165562D01*
X3818857Y-7165562D02*
X3818857Y-7270324D01*
X4209333Y-7060800D02*
X4037905Y-7317943D01*
X4466476Y-7070324D02*
X4485524Y-7070324D01*
X4485524Y-7070324D02*
X4504572Y-7079848D01*
X4504572Y-7079848D02*
X4514095Y-7089371D01*
X4514095Y-7089371D02*
X4523619Y-7108419D01*
X4523619Y-7108419D02*
X4533143Y-7146514D01*
X4533143Y-7146514D02*
X4533143Y-7194133D01*
X4533143Y-7194133D02*
X4523619Y-7232228D01*
X4523619Y-7232228D02*
X4514095Y-7251276D01*
X4514095Y-7251276D02*
X4504572Y-7260800D01*
X4504572Y-7260800D02*
X4485524Y-7270324D01*
X4485524Y-7270324D02*
X4466476Y-7270324D01*
X4466476Y-7270324D02*
X4447429Y-7260800D01*
X4447429Y-7260800D02*
X4437905Y-7251276D01*
X4437905Y-7251276D02*
X4428381Y-7232228D01*
X4428381Y-7232228D02*
X4418857Y-7194133D01*
X4418857Y-7194133D02*
X4418857Y-7146514D01*
X4418857Y-7146514D02*
X4428381Y-7108419D01*
X4428381Y-7108419D02*
X4437905Y-7089371D01*
X4437905Y-7089371D02*
X4447429Y-7079848D01*
X4447429Y-7079848D02*
X4466476Y-7070324D01*
X4618857Y-7251276D02*
X4628381Y-7260800D01*
X4628381Y-7260800D02*
X4618857Y-7270324D01*
X4618857Y-7270324D02*
X4609334Y-7260800D01*
X4609334Y-7260800D02*
X4618857Y-7251276D01*
X4618857Y-7251276D02*
X4618857Y-7270324D01*
X4752191Y-7070324D02*
X4771238Y-7070324D01*
X4771238Y-7070324D02*
X4790286Y-7079848D01*
X4790286Y-7079848D02*
X4799810Y-7089371D01*
X4799810Y-7089371D02*
X4809334Y-7108419D01*
X4809334Y-7108419D02*
X4818857Y-7146514D01*
X4818857Y-7146514D02*
X4818857Y-7194133D01*
X4818857Y-7194133D02*
X4809334Y-7232228D01*
X4809334Y-7232228D02*
X4799810Y-7251276D01*
X4799810Y-7251276D02*
X4790286Y-7260800D01*
X4790286Y-7260800D02*
X4771238Y-7270324D01*
X4771238Y-7270324D02*
X4752191Y-7270324D01*
X4752191Y-7270324D02*
X4733143Y-7260800D01*
X4733143Y-7260800D02*
X4723619Y-7251276D01*
X4723619Y-7251276D02*
X4714095Y-7232228D01*
X4714095Y-7232228D02*
X4704572Y-7194133D01*
X4704572Y-7194133D02*
X4704572Y-7146514D01*
X4704572Y-7146514D02*
X4714095Y-7108419D01*
X4714095Y-7108419D02*
X4723619Y-7089371D01*
X4723619Y-7089371D02*
X4733143Y-7079848D01*
X4733143Y-7079848D02*
X4752191Y-7070324D01*
X4885524Y-7070324D02*
X5009334Y-7070324D01*
X5009334Y-7070324D02*
X4942667Y-7146514D01*
X4942667Y-7146514D02*
X4971238Y-7146514D01*
X4971238Y-7146514D02*
X4990286Y-7156038D01*
X4990286Y-7156038D02*
X4999810Y-7165562D01*
X4999810Y-7165562D02*
X5009334Y-7184609D01*
X5009334Y-7184609D02*
X5009334Y-7232228D01*
X5009334Y-7232228D02*
X4999810Y-7251276D01*
X4999810Y-7251276D02*
X4990286Y-7260800D01*
X4990286Y-7260800D02*
X4971238Y-7270324D01*
X4971238Y-7270324D02*
X4914095Y-7270324D01*
X4914095Y-7270324D02*
X4895048Y-7260800D01*
X4895048Y-7260800D02*
X4885524Y-7251276D01*
X5199810Y-7270324D02*
X5085524Y-7270324D01*
X5142667Y-7270324D02*
X5142667Y-7070324D01*
X5142667Y-7070324D02*
X5123619Y-7098895D01*
X5123619Y-7098895D02*
X5104572Y-7117943D01*
X5104572Y-7117943D02*
X5085524Y-7127467D01*
X5380762Y-7070324D02*
X5285524Y-7070324D01*
X5285524Y-7070324D02*
X5276000Y-7165562D01*
X5276000Y-7165562D02*
X5285524Y-7156038D01*
X5285524Y-7156038D02*
X5304572Y-7146514D01*
X5304572Y-7146514D02*
X5352191Y-7146514D01*
X5352191Y-7146514D02*
X5371238Y-7156038D01*
X5371238Y-7156038D02*
X5380762Y-7165562D01*
X5380762Y-7165562D02*
X5390286Y-7184609D01*
X5390286Y-7184609D02*
X5390286Y-7232228D01*
X5390286Y-7232228D02*
X5380762Y-7251276D01*
X5380762Y-7251276D02*
X5371238Y-7260800D01*
X5371238Y-7260800D02*
X5352191Y-7270324D01*
X5352191Y-7270324D02*
X5304572Y-7270324D01*
X5304572Y-7270324D02*
X5285524Y-7260800D01*
X5285524Y-7260800D02*
X5276000Y-7251276D01*
X5466476Y-7070324D02*
X5466476Y-7108419D01*
X5542667Y-7070324D02*
X5542667Y-7108419D01*
X5837905Y-7346514D02*
X5828381Y-7336990D01*
X5828381Y-7336990D02*
X5809334Y-7308419D01*
X5809334Y-7308419D02*
X5799810Y-7289371D01*
X5799810Y-7289371D02*
X5790286Y-7260800D01*
X5790286Y-7260800D02*
X5780762Y-7213181D01*
X5780762Y-7213181D02*
X5780762Y-7175086D01*
X5780762Y-7175086D02*
X5790286Y-7127467D01*
X5790286Y-7127467D02*
X5799810Y-7098895D01*
X5799810Y-7098895D02*
X5809334Y-7079848D01*
X5809334Y-7079848D02*
X5828381Y-7051276D01*
X5828381Y-7051276D02*
X5837905Y-7041752D01*
X5895048Y-7070324D02*
X6028381Y-7070324D01*
X6028381Y-7070324D02*
X5942667Y-7270324D01*
X6133143Y-7156038D02*
X6114095Y-7146514D01*
X6114095Y-7146514D02*
X6104572Y-7136990D01*
X6104572Y-7136990D02*
X6095048Y-7117943D01*
X6095048Y-7117943D02*
X6095048Y-7108419D01*
X6095048Y-7108419D02*
X6104572Y-7089371D01*
X6104572Y-7089371D02*
X6114095Y-7079848D01*
X6114095Y-7079848D02*
X6133143Y-7070324D01*
X6133143Y-7070324D02*
X6171238Y-7070324D01*
X6171238Y-7070324D02*
X6190286Y-7079848D01*
X6190286Y-7079848D02*
X6199810Y-7089371D01*
X6199810Y-7089371D02*
X6209334Y-7108419D01*
X6209334Y-7108419D02*
X6209334Y-7117943D01*
X6209334Y-7117943D02*
X6199810Y-7136990D01*
X6199810Y-7136990D02*
X6190286Y-7146514D01*
X6190286Y-7146514D02*
X6171238Y-7156038D01*
X6171238Y-7156038D02*
X6133143Y-7156038D01*
X6133143Y-7156038D02*
X6114095Y-7165562D01*
X6114095Y-7165562D02*
X6104572Y-7175086D01*
X6104572Y-7175086D02*
X6095048Y-7194133D01*
X6095048Y-7194133D02*
X6095048Y-7232228D01*
X6095048Y-7232228D02*
X6104572Y-7251276D01*
X6104572Y-7251276D02*
X6114095Y-7260800D01*
X6114095Y-7260800D02*
X6133143Y-7270324D01*
X6133143Y-7270324D02*
X6171238Y-7270324D01*
X6171238Y-7270324D02*
X6190286Y-7260800D01*
X6190286Y-7260800D02*
X6199810Y-7251276D01*
X6199810Y-7251276D02*
X6209334Y-7232228D01*
X6209334Y-7232228D02*
X6209334Y-7194133D01*
X6209334Y-7194133D02*
X6199810Y-7175086D01*
X6199810Y-7175086D02*
X6190286Y-7165562D01*
X6190286Y-7165562D02*
X6171238Y-7156038D01*
X6447429Y-7270324D02*
X6447429Y-7070324D01*
X6533143Y-7270324D02*
X6533143Y-7165562D01*
X6533143Y-7165562D02*
X6523619Y-7146514D01*
X6523619Y-7146514D02*
X6504572Y-7136990D01*
X6504572Y-7136990D02*
X6476000Y-7136990D01*
X6476000Y-7136990D02*
X6456953Y-7146514D01*
X6456953Y-7146514D02*
X6447429Y-7156038D01*
X6656953Y-7270324D02*
X6637905Y-7260800D01*
X6637905Y-7260800D02*
X6628381Y-7251276D01*
X6628381Y-7251276D02*
X6618857Y-7232228D01*
X6618857Y-7232228D02*
X6618857Y-7175086D01*
X6618857Y-7175086D02*
X6628381Y-7156038D01*
X6628381Y-7156038D02*
X6637905Y-7146514D01*
X6637905Y-7146514D02*
X6656953Y-7136990D01*
X6656953Y-7136990D02*
X6685524Y-7136990D01*
X6685524Y-7136990D02*
X6704572Y-7146514D01*
X6704572Y-7146514D02*
X6714096Y-7156038D01*
X6714096Y-7156038D02*
X6723619Y-7175086D01*
X6723619Y-7175086D02*
X6723619Y-7232228D01*
X6723619Y-7232228D02*
X6714096Y-7251276D01*
X6714096Y-7251276D02*
X6704572Y-7260800D01*
X6704572Y-7260800D02*
X6685524Y-7270324D01*
X6685524Y-7270324D02*
X6656953Y-7270324D01*
X6837905Y-7270324D02*
X6818857Y-7260800D01*
X6818857Y-7260800D02*
X6809334Y-7241752D01*
X6809334Y-7241752D02*
X6809334Y-7070324D01*
X6990286Y-7260800D02*
X6971238Y-7270324D01*
X6971238Y-7270324D02*
X6933143Y-7270324D01*
X6933143Y-7270324D02*
X6914096Y-7260800D01*
X6914096Y-7260800D02*
X6904572Y-7241752D01*
X6904572Y-7241752D02*
X6904572Y-7165562D01*
X6904572Y-7165562D02*
X6914096Y-7146514D01*
X6914096Y-7146514D02*
X6933143Y-7136990D01*
X6933143Y-7136990D02*
X6971238Y-7136990D01*
X6971238Y-7136990D02*
X6990286Y-7146514D01*
X6990286Y-7146514D02*
X6999810Y-7165562D01*
X6999810Y-7165562D02*
X6999810Y-7184609D01*
X6999810Y-7184609D02*
X6904572Y-7203657D01*
X7076000Y-7260800D02*
X7095048Y-7270324D01*
X7095048Y-7270324D02*
X7133143Y-7270324D01*
X7133143Y-7270324D02*
X7152191Y-7260800D01*
X7152191Y-7260800D02*
X7161715Y-7241752D01*
X7161715Y-7241752D02*
X7161715Y-7232228D01*
X7161715Y-7232228D02*
X7152191Y-7213181D01*
X7152191Y-7213181D02*
X7133143Y-7203657D01*
X7133143Y-7203657D02*
X7104572Y-7203657D01*
X7104572Y-7203657D02*
X7085524Y-7194133D01*
X7085524Y-7194133D02*
X7076000Y-7175086D01*
X7076000Y-7175086D02*
X7076000Y-7165562D01*
X7076000Y-7165562D02*
X7085524Y-7146514D01*
X7085524Y-7146514D02*
X7104572Y-7136990D01*
X7104572Y-7136990D02*
X7133143Y-7136990D01*
X7133143Y-7136990D02*
X7152191Y-7146514D01*
X7228381Y-7346514D02*
X7237905Y-7336990D01*
X7237905Y-7336990D02*
X7256953Y-7308419D01*
X7256953Y-7308419D02*
X7266477Y-7289371D01*
X7266477Y-7289371D02*
X7276000Y-7260800D01*
X7276000Y-7260800D02*
X7285524Y-7213181D01*
X7285524Y-7213181D02*
X7285524Y-7175086D01*
X7285524Y-7175086D02*
X7276000Y-7127467D01*
X7276000Y-7127467D02*
X7266477Y-7098895D01*
X7266477Y-7098895D02*
X7256953Y-7079848D01*
X7256953Y-7079848D02*
X7237905Y-7051276D01*
X7237905Y-7051276D02*
X7228381Y-7041752D01*
D12*
X2276000Y-7441800D02*
G75*
G03*
X2276000Y-7441800I-45000J0D01*
G01*
D10*
X2561714Y-7334324D02*
X2580762Y-7334324D01*
X2580762Y-7334324D02*
X2599810Y-7343848D01*
X2599810Y-7343848D02*
X2609333Y-7353371D01*
X2609333Y-7353371D02*
X2618857Y-7372419D01*
X2618857Y-7372419D02*
X2628381Y-7410514D01*
X2628381Y-7410514D02*
X2628381Y-7458133D01*
X2628381Y-7458133D02*
X2618857Y-7496228D01*
X2618857Y-7496228D02*
X2609333Y-7515276D01*
X2609333Y-7515276D02*
X2599810Y-7524800D01*
X2599810Y-7524800D02*
X2580762Y-7534324D01*
X2580762Y-7534324D02*
X2561714Y-7534324D01*
X2561714Y-7534324D02*
X2542667Y-7524800D01*
X2542667Y-7524800D02*
X2533143Y-7515276D01*
X2533143Y-7515276D02*
X2523619Y-7496228D01*
X2523619Y-7496228D02*
X2514095Y-7458133D01*
X2514095Y-7458133D02*
X2514095Y-7410514D01*
X2514095Y-7410514D02*
X2523619Y-7372419D01*
X2523619Y-7372419D02*
X2533143Y-7353371D01*
X2533143Y-7353371D02*
X2542667Y-7343848D01*
X2542667Y-7343848D02*
X2561714Y-7334324D01*
X2714095Y-7515276D02*
X2723619Y-7524800D01*
X2723619Y-7524800D02*
X2714095Y-7534324D01*
X2714095Y-7534324D02*
X2704571Y-7524800D01*
X2704571Y-7524800D02*
X2714095Y-7515276D01*
X2714095Y-7515276D02*
X2714095Y-7534324D01*
X2818857Y-7534324D02*
X2856952Y-7534324D01*
X2856952Y-7534324D02*
X2876000Y-7524800D01*
X2876000Y-7524800D02*
X2885524Y-7515276D01*
X2885524Y-7515276D02*
X2904571Y-7486705D01*
X2904571Y-7486705D02*
X2914095Y-7448609D01*
X2914095Y-7448609D02*
X2914095Y-7372419D01*
X2914095Y-7372419D02*
X2904571Y-7353371D01*
X2904571Y-7353371D02*
X2895048Y-7343848D01*
X2895048Y-7343848D02*
X2876000Y-7334324D01*
X2876000Y-7334324D02*
X2837905Y-7334324D01*
X2837905Y-7334324D02*
X2818857Y-7343848D01*
X2818857Y-7343848D02*
X2809333Y-7353371D01*
X2809333Y-7353371D02*
X2799809Y-7372419D01*
X2799809Y-7372419D02*
X2799809Y-7420038D01*
X2799809Y-7420038D02*
X2809333Y-7439086D01*
X2809333Y-7439086D02*
X2818857Y-7448609D01*
X2818857Y-7448609D02*
X2837905Y-7458133D01*
X2837905Y-7458133D02*
X2876000Y-7458133D01*
X2876000Y-7458133D02*
X2895048Y-7448609D01*
X2895048Y-7448609D02*
X2904571Y-7439086D01*
X2904571Y-7439086D02*
X2914095Y-7420038D01*
X3037905Y-7334324D02*
X3056952Y-7334324D01*
X3056952Y-7334324D02*
X3076000Y-7343848D01*
X3076000Y-7343848D02*
X3085524Y-7353371D01*
X3085524Y-7353371D02*
X3095048Y-7372419D01*
X3095048Y-7372419D02*
X3104571Y-7410514D01*
X3104571Y-7410514D02*
X3104571Y-7458133D01*
X3104571Y-7458133D02*
X3095048Y-7496228D01*
X3095048Y-7496228D02*
X3085524Y-7515276D01*
X3085524Y-7515276D02*
X3076000Y-7524800D01*
X3076000Y-7524800D02*
X3056952Y-7534324D01*
X3056952Y-7534324D02*
X3037905Y-7534324D01*
X3037905Y-7534324D02*
X3018857Y-7524800D01*
X3018857Y-7524800D02*
X3009333Y-7515276D01*
X3009333Y-7515276D02*
X2999809Y-7496228D01*
X2999809Y-7496228D02*
X2990286Y-7458133D01*
X2990286Y-7458133D02*
X2990286Y-7410514D01*
X2990286Y-7410514D02*
X2999809Y-7372419D01*
X2999809Y-7372419D02*
X3009333Y-7353371D01*
X3009333Y-7353371D02*
X3018857Y-7343848D01*
X3018857Y-7343848D02*
X3037905Y-7334324D01*
X3228381Y-7334324D02*
X3247429Y-7334324D01*
X3247429Y-7334324D02*
X3266476Y-7343848D01*
X3266476Y-7343848D02*
X3276000Y-7353371D01*
X3276000Y-7353371D02*
X3285524Y-7372419D01*
X3285524Y-7372419D02*
X3295048Y-7410514D01*
X3295048Y-7410514D02*
X3295048Y-7458133D01*
X3295048Y-7458133D02*
X3285524Y-7496228D01*
X3285524Y-7496228D02*
X3276000Y-7515276D01*
X3276000Y-7515276D02*
X3266476Y-7524800D01*
X3266476Y-7524800D02*
X3247429Y-7534324D01*
X3247429Y-7534324D02*
X3228381Y-7534324D01*
X3228381Y-7534324D02*
X3209333Y-7524800D01*
X3209333Y-7524800D02*
X3199809Y-7515276D01*
X3199809Y-7515276D02*
X3190286Y-7496228D01*
X3190286Y-7496228D02*
X3180762Y-7458133D01*
X3180762Y-7458133D02*
X3180762Y-7410514D01*
X3180762Y-7410514D02*
X3190286Y-7372419D01*
X3190286Y-7372419D02*
X3199809Y-7353371D01*
X3199809Y-7353371D02*
X3209333Y-7343848D01*
X3209333Y-7343848D02*
X3228381Y-7334324D01*
X3380762Y-7534324D02*
X3380762Y-7400990D01*
X3380762Y-7420038D02*
X3390286Y-7410514D01*
X3390286Y-7410514D02*
X3409333Y-7400990D01*
X3409333Y-7400990D02*
X3437905Y-7400990D01*
X3437905Y-7400990D02*
X3456952Y-7410514D01*
X3456952Y-7410514D02*
X3466476Y-7429562D01*
X3466476Y-7429562D02*
X3466476Y-7534324D01*
X3466476Y-7429562D02*
X3476000Y-7410514D01*
X3476000Y-7410514D02*
X3495048Y-7400990D01*
X3495048Y-7400990D02*
X3523619Y-7400990D01*
X3523619Y-7400990D02*
X3542667Y-7410514D01*
X3542667Y-7410514D02*
X3552190Y-7429562D01*
X3552190Y-7429562D02*
X3552190Y-7534324D01*
X3647429Y-7534324D02*
X3647429Y-7400990D01*
X3647429Y-7420038D02*
X3656952Y-7410514D01*
X3656952Y-7410514D02*
X3676000Y-7400990D01*
X3676000Y-7400990D02*
X3704571Y-7400990D01*
X3704571Y-7400990D02*
X3723619Y-7410514D01*
X3723619Y-7410514D02*
X3733143Y-7429562D01*
X3733143Y-7429562D02*
X3733143Y-7534324D01*
X3733143Y-7429562D02*
X3742667Y-7410514D01*
X3742667Y-7410514D02*
X3761714Y-7400990D01*
X3761714Y-7400990D02*
X3790286Y-7400990D01*
X3790286Y-7400990D02*
X3809333Y-7410514D01*
X3809333Y-7410514D02*
X3818857Y-7429562D01*
X3818857Y-7429562D02*
X3818857Y-7534324D01*
X4209333Y-7324800D02*
X4037905Y-7581943D01*
X4466476Y-7334324D02*
X4485524Y-7334324D01*
X4485524Y-7334324D02*
X4504572Y-7343848D01*
X4504572Y-7343848D02*
X4514095Y-7353371D01*
X4514095Y-7353371D02*
X4523619Y-7372419D01*
X4523619Y-7372419D02*
X4533143Y-7410514D01*
X4533143Y-7410514D02*
X4533143Y-7458133D01*
X4533143Y-7458133D02*
X4523619Y-7496228D01*
X4523619Y-7496228D02*
X4514095Y-7515276D01*
X4514095Y-7515276D02*
X4504572Y-7524800D01*
X4504572Y-7524800D02*
X4485524Y-7534324D01*
X4485524Y-7534324D02*
X4466476Y-7534324D01*
X4466476Y-7534324D02*
X4447429Y-7524800D01*
X4447429Y-7524800D02*
X4437905Y-7515276D01*
X4437905Y-7515276D02*
X4428381Y-7496228D01*
X4428381Y-7496228D02*
X4418857Y-7458133D01*
X4418857Y-7458133D02*
X4418857Y-7410514D01*
X4418857Y-7410514D02*
X4428381Y-7372419D01*
X4428381Y-7372419D02*
X4437905Y-7353371D01*
X4437905Y-7353371D02*
X4447429Y-7343848D01*
X4447429Y-7343848D02*
X4466476Y-7334324D01*
X4618857Y-7515276D02*
X4628381Y-7524800D01*
X4628381Y-7524800D02*
X4618857Y-7534324D01*
X4618857Y-7534324D02*
X4609334Y-7524800D01*
X4609334Y-7524800D02*
X4618857Y-7515276D01*
X4618857Y-7515276D02*
X4618857Y-7534324D01*
X4752191Y-7334324D02*
X4771238Y-7334324D01*
X4771238Y-7334324D02*
X4790286Y-7343848D01*
X4790286Y-7343848D02*
X4799810Y-7353371D01*
X4799810Y-7353371D02*
X4809334Y-7372419D01*
X4809334Y-7372419D02*
X4818857Y-7410514D01*
X4818857Y-7410514D02*
X4818857Y-7458133D01*
X4818857Y-7458133D02*
X4809334Y-7496228D01*
X4809334Y-7496228D02*
X4799810Y-7515276D01*
X4799810Y-7515276D02*
X4790286Y-7524800D01*
X4790286Y-7524800D02*
X4771238Y-7534324D01*
X4771238Y-7534324D02*
X4752191Y-7534324D01*
X4752191Y-7534324D02*
X4733143Y-7524800D01*
X4733143Y-7524800D02*
X4723619Y-7515276D01*
X4723619Y-7515276D02*
X4714095Y-7496228D01*
X4714095Y-7496228D02*
X4704572Y-7458133D01*
X4704572Y-7458133D02*
X4704572Y-7410514D01*
X4704572Y-7410514D02*
X4714095Y-7372419D01*
X4714095Y-7372419D02*
X4723619Y-7353371D01*
X4723619Y-7353371D02*
X4733143Y-7343848D01*
X4733143Y-7343848D02*
X4752191Y-7334324D01*
X4885524Y-7334324D02*
X5009334Y-7334324D01*
X5009334Y-7334324D02*
X4942667Y-7410514D01*
X4942667Y-7410514D02*
X4971238Y-7410514D01*
X4971238Y-7410514D02*
X4990286Y-7420038D01*
X4990286Y-7420038D02*
X4999810Y-7429562D01*
X4999810Y-7429562D02*
X5009334Y-7448609D01*
X5009334Y-7448609D02*
X5009334Y-7496228D01*
X5009334Y-7496228D02*
X4999810Y-7515276D01*
X4999810Y-7515276D02*
X4990286Y-7524800D01*
X4990286Y-7524800D02*
X4971238Y-7534324D01*
X4971238Y-7534324D02*
X4914095Y-7534324D01*
X4914095Y-7534324D02*
X4895048Y-7524800D01*
X4895048Y-7524800D02*
X4885524Y-7515276D01*
X5190286Y-7334324D02*
X5095048Y-7334324D01*
X5095048Y-7334324D02*
X5085524Y-7429562D01*
X5085524Y-7429562D02*
X5095048Y-7420038D01*
X5095048Y-7420038D02*
X5114095Y-7410514D01*
X5114095Y-7410514D02*
X5161715Y-7410514D01*
X5161715Y-7410514D02*
X5180762Y-7420038D01*
X5180762Y-7420038D02*
X5190286Y-7429562D01*
X5190286Y-7429562D02*
X5199810Y-7448609D01*
X5199810Y-7448609D02*
X5199810Y-7496228D01*
X5199810Y-7496228D02*
X5190286Y-7515276D01*
X5190286Y-7515276D02*
X5180762Y-7524800D01*
X5180762Y-7524800D02*
X5161715Y-7534324D01*
X5161715Y-7534324D02*
X5114095Y-7534324D01*
X5114095Y-7534324D02*
X5095048Y-7524800D01*
X5095048Y-7524800D02*
X5085524Y-7515276D01*
X5371238Y-7400990D02*
X5371238Y-7534324D01*
X5323619Y-7324800D02*
X5276000Y-7467657D01*
X5276000Y-7467657D02*
X5399810Y-7467657D01*
X5466476Y-7334324D02*
X5466476Y-7372419D01*
X5542667Y-7334324D02*
X5542667Y-7372419D01*
X5837905Y-7610514D02*
X5828381Y-7600990D01*
X5828381Y-7600990D02*
X5809334Y-7572419D01*
X5809334Y-7572419D02*
X5799810Y-7553371D01*
X5799810Y-7553371D02*
X5790286Y-7524800D01*
X5790286Y-7524800D02*
X5780762Y-7477181D01*
X5780762Y-7477181D02*
X5780762Y-7439086D01*
X5780762Y-7439086D02*
X5790286Y-7391467D01*
X5790286Y-7391467D02*
X5799810Y-7362895D01*
X5799810Y-7362895D02*
X5809334Y-7343848D01*
X5809334Y-7343848D02*
X5828381Y-7315276D01*
X5828381Y-7315276D02*
X5837905Y-7305752D01*
X5999810Y-7400990D02*
X5999810Y-7534324D01*
X5952191Y-7324800D02*
X5904572Y-7467657D01*
X5904572Y-7467657D02*
X6028381Y-7467657D01*
X6256953Y-7534324D02*
X6256953Y-7334324D01*
X6342667Y-7534324D02*
X6342667Y-7429562D01*
X6342667Y-7429562D02*
X6333143Y-7410514D01*
X6333143Y-7410514D02*
X6314096Y-7400990D01*
X6314096Y-7400990D02*
X6285524Y-7400990D01*
X6285524Y-7400990D02*
X6266476Y-7410514D01*
X6266476Y-7410514D02*
X6256953Y-7420038D01*
X6466476Y-7534324D02*
X6447429Y-7524800D01*
X6447429Y-7524800D02*
X6437905Y-7515276D01*
X6437905Y-7515276D02*
X6428381Y-7496228D01*
X6428381Y-7496228D02*
X6428381Y-7439086D01*
X6428381Y-7439086D02*
X6437905Y-7420038D01*
X6437905Y-7420038D02*
X6447429Y-7410514D01*
X6447429Y-7410514D02*
X6466476Y-7400990D01*
X6466476Y-7400990D02*
X6495048Y-7400990D01*
X6495048Y-7400990D02*
X6514096Y-7410514D01*
X6514096Y-7410514D02*
X6523619Y-7420038D01*
X6523619Y-7420038D02*
X6533143Y-7439086D01*
X6533143Y-7439086D02*
X6533143Y-7496228D01*
X6533143Y-7496228D02*
X6523619Y-7515276D01*
X6523619Y-7515276D02*
X6514096Y-7524800D01*
X6514096Y-7524800D02*
X6495048Y-7534324D01*
X6495048Y-7534324D02*
X6466476Y-7534324D01*
X6647429Y-7534324D02*
X6628381Y-7524800D01*
X6628381Y-7524800D02*
X6618857Y-7505752D01*
X6618857Y-7505752D02*
X6618857Y-7334324D01*
X6799810Y-7524800D02*
X6780762Y-7534324D01*
X6780762Y-7534324D02*
X6742667Y-7534324D01*
X6742667Y-7534324D02*
X6723619Y-7524800D01*
X6723619Y-7524800D02*
X6714096Y-7505752D01*
X6714096Y-7505752D02*
X6714096Y-7429562D01*
X6714096Y-7429562D02*
X6723619Y-7410514D01*
X6723619Y-7410514D02*
X6742667Y-7400990D01*
X6742667Y-7400990D02*
X6780762Y-7400990D01*
X6780762Y-7400990D02*
X6799810Y-7410514D01*
X6799810Y-7410514D02*
X6809334Y-7429562D01*
X6809334Y-7429562D02*
X6809334Y-7448609D01*
X6809334Y-7448609D02*
X6714096Y-7467657D01*
X6885524Y-7524800D02*
X6904572Y-7534324D01*
X6904572Y-7534324D02*
X6942667Y-7534324D01*
X6942667Y-7534324D02*
X6961715Y-7524800D01*
X6961715Y-7524800D02*
X6971238Y-7505752D01*
X6971238Y-7505752D02*
X6971238Y-7496228D01*
X6971238Y-7496228D02*
X6961715Y-7477181D01*
X6961715Y-7477181D02*
X6942667Y-7467657D01*
X6942667Y-7467657D02*
X6914096Y-7467657D01*
X6914096Y-7467657D02*
X6895048Y-7458133D01*
X6895048Y-7458133D02*
X6885524Y-7439086D01*
X6885524Y-7439086D02*
X6885524Y-7429562D01*
X6885524Y-7429562D02*
X6895048Y-7410514D01*
X6895048Y-7410514D02*
X6914096Y-7400990D01*
X6914096Y-7400990D02*
X6942667Y-7400990D01*
X6942667Y-7400990D02*
X6961715Y-7410514D01*
X7037905Y-7610514D02*
X7047429Y-7600990D01*
X7047429Y-7600990D02*
X7066477Y-7572419D01*
X7066477Y-7572419D02*
X7076000Y-7553371D01*
X7076000Y-7553371D02*
X7085524Y-7524800D01*
X7085524Y-7524800D02*
X7095048Y-7477181D01*
X7095048Y-7477181D02*
X7095048Y-7439086D01*
X7095048Y-7439086D02*
X7085524Y-7391467D01*
X7085524Y-7391467D02*
X7076000Y-7362895D01*
X7076000Y-7362895D02*
X7066477Y-7343848D01*
X7066477Y-7343848D02*
X7047429Y-7315276D01*
X7047429Y-7315276D02*
X7037905Y-7305752D01*
D13*
X2206000Y-7635800D02*
X2206000Y-7775800D01*
X2136000Y-7705800D02*
X2276000Y-7705800D01*
D10*
X2628381Y-7798324D02*
X2514095Y-7798324D01*
X2571238Y-7798324D02*
X2571238Y-7598324D01*
X2571238Y-7598324D02*
X2552190Y-7626895D01*
X2552190Y-7626895D02*
X2533143Y-7645943D01*
X2533143Y-7645943D02*
X2514095Y-7655467D01*
X2714095Y-7779276D02*
X2723619Y-7788800D01*
X2723619Y-7788800D02*
X2714095Y-7798324D01*
X2714095Y-7798324D02*
X2704571Y-7788800D01*
X2704571Y-7788800D02*
X2714095Y-7779276D01*
X2714095Y-7779276D02*
X2714095Y-7798324D01*
X2895048Y-7664990D02*
X2895048Y-7798324D01*
X2847428Y-7588800D02*
X2799809Y-7731657D01*
X2799809Y-7731657D02*
X2923619Y-7731657D01*
X3037905Y-7598324D02*
X3056952Y-7598324D01*
X3056952Y-7598324D02*
X3076000Y-7607848D01*
X3076000Y-7607848D02*
X3085524Y-7617371D01*
X3085524Y-7617371D02*
X3095048Y-7636419D01*
X3095048Y-7636419D02*
X3104571Y-7674514D01*
X3104571Y-7674514D02*
X3104571Y-7722133D01*
X3104571Y-7722133D02*
X3095048Y-7760228D01*
X3095048Y-7760228D02*
X3085524Y-7779276D01*
X3085524Y-7779276D02*
X3076000Y-7788800D01*
X3076000Y-7788800D02*
X3056952Y-7798324D01*
X3056952Y-7798324D02*
X3037905Y-7798324D01*
X3037905Y-7798324D02*
X3018857Y-7788800D01*
X3018857Y-7788800D02*
X3009333Y-7779276D01*
X3009333Y-7779276D02*
X2999809Y-7760228D01*
X2999809Y-7760228D02*
X2990286Y-7722133D01*
X2990286Y-7722133D02*
X2990286Y-7674514D01*
X2990286Y-7674514D02*
X2999809Y-7636419D01*
X2999809Y-7636419D02*
X3009333Y-7617371D01*
X3009333Y-7617371D02*
X3018857Y-7607848D01*
X3018857Y-7607848D02*
X3037905Y-7598324D01*
X3228381Y-7598324D02*
X3247429Y-7598324D01*
X3247429Y-7598324D02*
X3266476Y-7607848D01*
X3266476Y-7607848D02*
X3276000Y-7617371D01*
X3276000Y-7617371D02*
X3285524Y-7636419D01*
X3285524Y-7636419D02*
X3295048Y-7674514D01*
X3295048Y-7674514D02*
X3295048Y-7722133D01*
X3295048Y-7722133D02*
X3285524Y-7760228D01*
X3285524Y-7760228D02*
X3276000Y-7779276D01*
X3276000Y-7779276D02*
X3266476Y-7788800D01*
X3266476Y-7788800D02*
X3247429Y-7798324D01*
X3247429Y-7798324D02*
X3228381Y-7798324D01*
X3228381Y-7798324D02*
X3209333Y-7788800D01*
X3209333Y-7788800D02*
X3199809Y-7779276D01*
X3199809Y-7779276D02*
X3190286Y-7760228D01*
X3190286Y-7760228D02*
X3180762Y-7722133D01*
X3180762Y-7722133D02*
X3180762Y-7674514D01*
X3180762Y-7674514D02*
X3190286Y-7636419D01*
X3190286Y-7636419D02*
X3199809Y-7617371D01*
X3199809Y-7617371D02*
X3209333Y-7607848D01*
X3209333Y-7607848D02*
X3228381Y-7598324D01*
X3380762Y-7798324D02*
X3380762Y-7664990D01*
X3380762Y-7684038D02*
X3390286Y-7674514D01*
X3390286Y-7674514D02*
X3409333Y-7664990D01*
X3409333Y-7664990D02*
X3437905Y-7664990D01*
X3437905Y-7664990D02*
X3456952Y-7674514D01*
X3456952Y-7674514D02*
X3466476Y-7693562D01*
X3466476Y-7693562D02*
X3466476Y-7798324D01*
X3466476Y-7693562D02*
X3476000Y-7674514D01*
X3476000Y-7674514D02*
X3495048Y-7664990D01*
X3495048Y-7664990D02*
X3523619Y-7664990D01*
X3523619Y-7664990D02*
X3542667Y-7674514D01*
X3542667Y-7674514D02*
X3552190Y-7693562D01*
X3552190Y-7693562D02*
X3552190Y-7798324D01*
X3647429Y-7798324D02*
X3647429Y-7664990D01*
X3647429Y-7684038D02*
X3656952Y-7674514D01*
X3656952Y-7674514D02*
X3676000Y-7664990D01*
X3676000Y-7664990D02*
X3704571Y-7664990D01*
X3704571Y-7664990D02*
X3723619Y-7674514D01*
X3723619Y-7674514D02*
X3733143Y-7693562D01*
X3733143Y-7693562D02*
X3733143Y-7798324D01*
X3733143Y-7693562D02*
X3742667Y-7674514D01*
X3742667Y-7674514D02*
X3761714Y-7664990D01*
X3761714Y-7664990D02*
X3790286Y-7664990D01*
X3790286Y-7664990D02*
X3809333Y-7674514D01*
X3809333Y-7674514D02*
X3818857Y-7693562D01*
X3818857Y-7693562D02*
X3818857Y-7798324D01*
X4209333Y-7588800D02*
X4037905Y-7845943D01*
X4466476Y-7598324D02*
X4485524Y-7598324D01*
X4485524Y-7598324D02*
X4504572Y-7607848D01*
X4504572Y-7607848D02*
X4514095Y-7617371D01*
X4514095Y-7617371D02*
X4523619Y-7636419D01*
X4523619Y-7636419D02*
X4533143Y-7674514D01*
X4533143Y-7674514D02*
X4533143Y-7722133D01*
X4533143Y-7722133D02*
X4523619Y-7760228D01*
X4523619Y-7760228D02*
X4514095Y-7779276D01*
X4514095Y-7779276D02*
X4504572Y-7788800D01*
X4504572Y-7788800D02*
X4485524Y-7798324D01*
X4485524Y-7798324D02*
X4466476Y-7798324D01*
X4466476Y-7798324D02*
X4447429Y-7788800D01*
X4447429Y-7788800D02*
X4437905Y-7779276D01*
X4437905Y-7779276D02*
X4428381Y-7760228D01*
X4428381Y-7760228D02*
X4418857Y-7722133D01*
X4418857Y-7722133D02*
X4418857Y-7674514D01*
X4418857Y-7674514D02*
X4428381Y-7636419D01*
X4428381Y-7636419D02*
X4437905Y-7617371D01*
X4437905Y-7617371D02*
X4447429Y-7607848D01*
X4447429Y-7607848D02*
X4466476Y-7598324D01*
X4618857Y-7779276D02*
X4628381Y-7788800D01*
X4628381Y-7788800D02*
X4618857Y-7798324D01*
X4618857Y-7798324D02*
X4609334Y-7788800D01*
X4609334Y-7788800D02*
X4618857Y-7779276D01*
X4618857Y-7779276D02*
X4618857Y-7798324D01*
X4752191Y-7598324D02*
X4771238Y-7598324D01*
X4771238Y-7598324D02*
X4790286Y-7607848D01*
X4790286Y-7607848D02*
X4799810Y-7617371D01*
X4799810Y-7617371D02*
X4809334Y-7636419D01*
X4809334Y-7636419D02*
X4818857Y-7674514D01*
X4818857Y-7674514D02*
X4818857Y-7722133D01*
X4818857Y-7722133D02*
X4809334Y-7760228D01*
X4809334Y-7760228D02*
X4799810Y-7779276D01*
X4799810Y-7779276D02*
X4790286Y-7788800D01*
X4790286Y-7788800D02*
X4771238Y-7798324D01*
X4771238Y-7798324D02*
X4752191Y-7798324D01*
X4752191Y-7798324D02*
X4733143Y-7788800D01*
X4733143Y-7788800D02*
X4723619Y-7779276D01*
X4723619Y-7779276D02*
X4714095Y-7760228D01*
X4714095Y-7760228D02*
X4704572Y-7722133D01*
X4704572Y-7722133D02*
X4704572Y-7674514D01*
X4704572Y-7674514D02*
X4714095Y-7636419D01*
X4714095Y-7636419D02*
X4723619Y-7617371D01*
X4723619Y-7617371D02*
X4733143Y-7607848D01*
X4733143Y-7607848D02*
X4752191Y-7598324D01*
X4999810Y-7598324D02*
X4904572Y-7598324D01*
X4904572Y-7598324D02*
X4895048Y-7693562D01*
X4895048Y-7693562D02*
X4904572Y-7684038D01*
X4904572Y-7684038D02*
X4923619Y-7674514D01*
X4923619Y-7674514D02*
X4971238Y-7674514D01*
X4971238Y-7674514D02*
X4990286Y-7684038D01*
X4990286Y-7684038D02*
X4999810Y-7693562D01*
X4999810Y-7693562D02*
X5009334Y-7712609D01*
X5009334Y-7712609D02*
X5009334Y-7760228D01*
X5009334Y-7760228D02*
X4999810Y-7779276D01*
X4999810Y-7779276D02*
X4990286Y-7788800D01*
X4990286Y-7788800D02*
X4971238Y-7798324D01*
X4971238Y-7798324D02*
X4923619Y-7798324D01*
X4923619Y-7798324D02*
X4904572Y-7788800D01*
X4904572Y-7788800D02*
X4895048Y-7779276D01*
X5190286Y-7598324D02*
X5095048Y-7598324D01*
X5095048Y-7598324D02*
X5085524Y-7693562D01*
X5085524Y-7693562D02*
X5095048Y-7684038D01*
X5095048Y-7684038D02*
X5114095Y-7674514D01*
X5114095Y-7674514D02*
X5161715Y-7674514D01*
X5161715Y-7674514D02*
X5180762Y-7684038D01*
X5180762Y-7684038D02*
X5190286Y-7693562D01*
X5190286Y-7693562D02*
X5199810Y-7712609D01*
X5199810Y-7712609D02*
X5199810Y-7760228D01*
X5199810Y-7760228D02*
X5190286Y-7779276D01*
X5190286Y-7779276D02*
X5180762Y-7788800D01*
X5180762Y-7788800D02*
X5161715Y-7798324D01*
X5161715Y-7798324D02*
X5114095Y-7798324D01*
X5114095Y-7798324D02*
X5095048Y-7788800D01*
X5095048Y-7788800D02*
X5085524Y-7779276D01*
X5390286Y-7798324D02*
X5276000Y-7798324D01*
X5333143Y-7798324D02*
X5333143Y-7598324D01*
X5333143Y-7598324D02*
X5314095Y-7626895D01*
X5314095Y-7626895D02*
X5295048Y-7645943D01*
X5295048Y-7645943D02*
X5276000Y-7655467D01*
X5466476Y-7598324D02*
X5466476Y-7636419D01*
X5542667Y-7598324D02*
X5542667Y-7636419D01*
X5837905Y-7874514D02*
X5828381Y-7864990D01*
X5828381Y-7864990D02*
X5809334Y-7836419D01*
X5809334Y-7836419D02*
X5799810Y-7817371D01*
X5799810Y-7817371D02*
X5790286Y-7788800D01*
X5790286Y-7788800D02*
X5780762Y-7741181D01*
X5780762Y-7741181D02*
X5780762Y-7703086D01*
X5780762Y-7703086D02*
X5790286Y-7655467D01*
X5790286Y-7655467D02*
X5799810Y-7626895D01*
X5799810Y-7626895D02*
X5809334Y-7607848D01*
X5809334Y-7607848D02*
X5828381Y-7579276D01*
X5828381Y-7579276D02*
X5837905Y-7569752D01*
X5999810Y-7598324D02*
X5961714Y-7598324D01*
X5961714Y-7598324D02*
X5942667Y-7607848D01*
X5942667Y-7607848D02*
X5933143Y-7617371D01*
X5933143Y-7617371D02*
X5914095Y-7645943D01*
X5914095Y-7645943D02*
X5904572Y-7684038D01*
X5904572Y-7684038D02*
X5904572Y-7760228D01*
X5904572Y-7760228D02*
X5914095Y-7779276D01*
X5914095Y-7779276D02*
X5923619Y-7788800D01*
X5923619Y-7788800D02*
X5942667Y-7798324D01*
X5942667Y-7798324D02*
X5980762Y-7798324D01*
X5980762Y-7798324D02*
X5999810Y-7788800D01*
X5999810Y-7788800D02*
X6009334Y-7779276D01*
X6009334Y-7779276D02*
X6018857Y-7760228D01*
X6018857Y-7760228D02*
X6018857Y-7712609D01*
X6018857Y-7712609D02*
X6009334Y-7693562D01*
X6009334Y-7693562D02*
X5999810Y-7684038D01*
X5999810Y-7684038D02*
X5980762Y-7674514D01*
X5980762Y-7674514D02*
X5942667Y-7674514D01*
X5942667Y-7674514D02*
X5923619Y-7684038D01*
X5923619Y-7684038D02*
X5914095Y-7693562D01*
X5914095Y-7693562D02*
X5904572Y-7712609D01*
X6256953Y-7798324D02*
X6256953Y-7598324D01*
X6342667Y-7798324D02*
X6342667Y-7693562D01*
X6342667Y-7693562D02*
X6333143Y-7674514D01*
X6333143Y-7674514D02*
X6314096Y-7664990D01*
X6314096Y-7664990D02*
X6285524Y-7664990D01*
X6285524Y-7664990D02*
X6266476Y-7674514D01*
X6266476Y-7674514D02*
X6256953Y-7684038D01*
X6466476Y-7798324D02*
X6447429Y-7788800D01*
X6447429Y-7788800D02*
X6437905Y-7779276D01*
X6437905Y-7779276D02*
X6428381Y-7760228D01*
X6428381Y-7760228D02*
X6428381Y-7703086D01*
X6428381Y-7703086D02*
X6437905Y-7684038D01*
X6437905Y-7684038D02*
X6447429Y-7674514D01*
X6447429Y-7674514D02*
X6466476Y-7664990D01*
X6466476Y-7664990D02*
X6495048Y-7664990D01*
X6495048Y-7664990D02*
X6514096Y-7674514D01*
X6514096Y-7674514D02*
X6523619Y-7684038D01*
X6523619Y-7684038D02*
X6533143Y-7703086D01*
X6533143Y-7703086D02*
X6533143Y-7760228D01*
X6533143Y-7760228D02*
X6523619Y-7779276D01*
X6523619Y-7779276D02*
X6514096Y-7788800D01*
X6514096Y-7788800D02*
X6495048Y-7798324D01*
X6495048Y-7798324D02*
X6466476Y-7798324D01*
X6647429Y-7798324D02*
X6628381Y-7788800D01*
X6628381Y-7788800D02*
X6618857Y-7769752D01*
X6618857Y-7769752D02*
X6618857Y-7598324D01*
X6799810Y-7788800D02*
X6780762Y-7798324D01*
X6780762Y-7798324D02*
X6742667Y-7798324D01*
X6742667Y-7798324D02*
X6723619Y-7788800D01*
X6723619Y-7788800D02*
X6714096Y-7769752D01*
X6714096Y-7769752D02*
X6714096Y-7693562D01*
X6714096Y-7693562D02*
X6723619Y-7674514D01*
X6723619Y-7674514D02*
X6742667Y-7664990D01*
X6742667Y-7664990D02*
X6780762Y-7664990D01*
X6780762Y-7664990D02*
X6799810Y-7674514D01*
X6799810Y-7674514D02*
X6809334Y-7693562D01*
X6809334Y-7693562D02*
X6809334Y-7712609D01*
X6809334Y-7712609D02*
X6714096Y-7731657D01*
X6885524Y-7788800D02*
X6904572Y-7798324D01*
X6904572Y-7798324D02*
X6942667Y-7798324D01*
X6942667Y-7798324D02*
X6961715Y-7788800D01*
X6961715Y-7788800D02*
X6971238Y-7769752D01*
X6971238Y-7769752D02*
X6971238Y-7760228D01*
X6971238Y-7760228D02*
X6961715Y-7741181D01*
X6961715Y-7741181D02*
X6942667Y-7731657D01*
X6942667Y-7731657D02*
X6914096Y-7731657D01*
X6914096Y-7731657D02*
X6895048Y-7722133D01*
X6895048Y-7722133D02*
X6885524Y-7703086D01*
X6885524Y-7703086D02*
X6885524Y-7693562D01*
X6885524Y-7693562D02*
X6895048Y-7674514D01*
X6895048Y-7674514D02*
X6914096Y-7664990D01*
X6914096Y-7664990D02*
X6942667Y-7664990D01*
X6942667Y-7664990D02*
X6961715Y-7674514D01*
X7037905Y-7874514D02*
X7047429Y-7864990D01*
X7047429Y-7864990D02*
X7066477Y-7836419D01*
X7066477Y-7836419D02*
X7076000Y-7817371D01*
X7076000Y-7817371D02*
X7085524Y-7788800D01*
X7085524Y-7788800D02*
X7095048Y-7741181D01*
X7095048Y-7741181D02*
X7095048Y-7703086D01*
X7095048Y-7703086D02*
X7085524Y-7655467D01*
X7085524Y-7655467D02*
X7076000Y-7626895D01*
X7076000Y-7626895D02*
X7066477Y-7607848D01*
X7066477Y-7607848D02*
X7047429Y-7579276D01*
X7047429Y-7579276D02*
X7037905Y-7569752D01*
M02*
