M48
; DRILL file {KiCad 7.0.2-6a45011f42~172~ubuntu22.04.1} date Mon 29 May 2023 08:36:31 PM CEST
; FORMAT={-:-/ absolute / metric / decimal}
; #@! TF.CreationDate,2023-05-29T20:36:31+02:00
; #@! TF.GenerationSoftware,Kicad,Pcbnew,7.0.2-6a45011f42~172~ubuntu22.04.1
; #@! TF.FileFunction,Plated,1,2,PTH
FMAT,2
METRIC
; #@! TA.AperFunction,Plated,PTH,ComponentDrill
T1C0.800
; #@! TA.AperFunction,Plated,PTH,ComponentDrill
T2C0.900
; #@! TA.AperFunction,Plated,PTH,ComponentDrill
T3C1.400
%
G90
G05
T1
X39.878Y-28.956
X39.878Y-36.576
X40.64Y-41.148
X40.64Y-48.768
X41.648Y-52.578
X41.648Y-57.658
X43.18Y-28.956
X43.18Y-36.576
X44.188Y-55.118
X44.704Y-42.164
X46.482Y-28.956
X46.482Y-36.576
X47.204Y-42.164
X48.76Y-52.578
X48.76Y-57.658
X49.784Y-28.956
X49.784Y-36.576
X51.3Y-55.118
X51.308Y-42.418
X53.086Y-28.956
X53.086Y-36.576
X53.808Y-42.418
X55.88Y-52.832
X55.88Y-57.912
X56.396Y-29.718
X58.42Y-35.306
X58.42Y-42.926
X58.42Y-55.372
X58.936Y-27.178
X58.936Y-32.258
X62.564Y-41.91
X62.992Y-52.832
X62.992Y-57.912
X64.262Y-27.94
X64.262Y-35.56
X65.532Y-55.372
X67.564Y-27.94
X67.564Y-35.56
X67.564Y-41.91
X71.882Y-27.94
X71.882Y-35.56
X71.882Y-41.91
X75.184Y-27.94
X75.184Y-35.56
X76.192Y-52.832
X76.192Y-57.912
X76.882Y-41.91
X78.732Y-55.372
X79.002Y-29.718
X81.026Y-35.306
X81.026Y-42.926
X81.542Y-27.178
X81.542Y-32.258
X83.304Y-52.832
X83.304Y-57.912
X85.844Y-55.372
X85.852Y-42.418
X86.36Y-29.21
X86.36Y-36.83
X88.352Y-42.418
X89.662Y-29.21
X89.662Y-36.83
X90.416Y-52.832
X90.416Y-57.912
X92.456Y-42.418
X92.956Y-55.372
X92.964Y-29.21
X92.964Y-36.83
X94.956Y-42.418
X96.266Y-29.21
X96.266Y-36.83
X97.274Y-52.832
X97.274Y-57.912
X99.314Y-41.148
X99.314Y-48.768
X99.568Y-29.21
X99.568Y-36.83
X99.814Y-55.372
T2
X31.242Y-52.578
X31.242Y-55.118
X108.966Y-52.832
X108.966Y-55.372
T3
X30.988Y-37.338
X30.988Y-42.418
X68.072Y-60.96
X73.152Y-60.96
X108.966Y-39.365
X108.966Y-44.445
T0
M30
